<svg width="280" height="80" viewBox="0 0 280 80" fill="none" xmlns="http://www.w3.org/2000/svg">
<path d="M16.5 19C16.5 20.3807 15.3807 21.5 14 21.5C12.6193 21.5 11.5 20.3807 11.5 19C11.5 17.6193 12.6193 16.5 14 16.5C15.3807 16.5 16.5 17.6193 16.5 19Z" stroke="#333333"/>
<path d="M23 19C23 20.3807 21.8807 21.5 20.5 21.5C19.1193 21.5 18 20.3807 18 19C18 17.6193 19.1193 16.5 20.5 16.5C21.8807 16.5 23 17.6193 23 19Z" stroke="#333333"/>
<path d="M29.5 19C29.5 20.3807 28.3807 21.5 27 21.5C25.6193 21.5 24.5 20.3807 24.5 19C24.5 17.6193 25.6193 16.5 27 16.5C28.3807 16.5 29.5 17.6193 29.5 19Z" stroke="#333333"/>
<path d="M23.5 32C23.5 33.3807 22.3807 34.5 21 34.5C19.6193 34.5 18.5 33.3807 18.5 32C18.5 30.6193 19.6193 29.5 21 29.5C22.3807 29.5 23.5 30.6193 23.5 32Z" stroke="#333333"/>
<path d="M19.5 25.5C19.5 26.8807 18.3807 28 17 28C15.6193 28 14.5 26.8807 14.5 25.5C14.5 24.1193 15.6193 23 17 23C18.3807 23 19.5 24.1193 19.5 25.5Z" stroke="#333333"/>
<path d="M26 25.5C26 26.8807 24.8807 28 23.5 28C22.1193 28 21 26.8807 21 25.5C21 24.1193 22.1193 23 23.5 23C24.8807 23 26 24.1193 26 25.5Z" stroke="#333333"/>
<path d="M21.3067 14.5104C21.2521 14.5146 21.2006 14.5181 21.1525 14.5212C21.1472 14.4733 21.1418 14.422 21.1364 14.3675C21.1 13.9972 21.0676 13.4855 21.0827 12.9189C21.1137 11.7579 21.3424 10.4838 22.0235 9.67211C22.7046 8.86041 23.9196 8.41398 25.0576 8.18184C25.6129 8.06856 26.1225 8.01164 26.4935 7.98317C26.5481 7.97899 26.5995 7.97542 26.6476 7.97239C26.653 8.02027 26.6584 8.07159 26.6638 8.12606C26.7002 8.49636 26.7326 9.0081 26.7175 9.57464C26.6864 10.7356 26.4578 12.0097 25.7767 12.8214C25.0956 13.6331 23.8805 14.0796 22.7426 14.3117C22.1873 14.425 21.6777 14.4819 21.3067 14.5104ZM26.5893 7.5416C26.5893 7.54155 26.5893 7.54157 26.5893 7.54164L26.5893 7.5416ZM27.082 7.95505C27.082 7.95505 27.082 7.95505 27.082 7.95505L27.082 7.95505Z" stroke="#333333"/>
<path d="M20.9264 14.5233C18.9599 12.8734 17.9767 11.2235 17.9767 9.57355C17.9767 7.92364 18.9599 6.27372 20.9264 4.6238C21.643 5.22503 22.229 5.82626 22.6845 6.42749C23.4789 7.47618 23.5002 8.60679 23.5002 8.60679" stroke="#333333" stroke-linecap="round"/>
<path d="M20.5542 14.5514C17.997 14.7753 16.1351 14.3039 14.9684 13.1372C13.8017 11.9705 13.3303 10.1086 13.5542 7.55141C14.5086 7.46787 15.3661 7.48116 16.1268 7.59129C17.4043 7.77626 18.1543 8.30018 18.1543 8.30018" stroke="#333333" stroke-linecap="round"/>
<path fill-rule="evenodd" clip-rule="evenodd" d="M70.5418 19.9603C70.5418 25.8041 65.8091 30.5423 59.9708 30.5423C54.1326 30.5423 49.4585 25.6152 49.4585 19.7706C49.4585 14.0808 53.9227 9.69548 59.5464 9.46907C59.6986 9.46173 59.8507 9.45898 60.0047 9.45898C65.843 9.45898 70.5418 14.1166 70.5418 19.9603V19.9603Z" stroke="#333333" stroke-linejoin="round"/>
<path d="M59.5464 9.46875C54.0464 15.4271 54.0464 23.2004 59.5464 30.5338" stroke="#333333" stroke-linejoin="round"/>
<path d="M60.4629 9.46875C65.9629 15.4271 65.9629 23.1977 60.4629 30.531" stroke="#333333" stroke-linejoin="round"/>
<path d="M51.1875 14.042H68.727" stroke="#333333" stroke-linejoin="round"/>
<path d="M49.4614 19.542H70.542" stroke="#333333" stroke-linejoin="round"/>
<path d="M50.8203 25.042H69.2453" stroke="#333333" stroke-linejoin="round"/>
<path fill-rule="evenodd" clip-rule="evenodd" d="M90.3554 27.4517C92.6276 29.9731 95.9176 31.5617 99.5711 31.5617C106.411 31.5617 111.975 25.9971 111.975 19.1572C111.975 18.5519 111.931 17.9462 111.844 17.3503C103.503 17.3876 95.7048 21.0584 90.3554 27.4517ZM99.5711 32.7283C95.4169 32.7283 91.6919 30.8514 89.2004 27.9016C89.1561 27.8619 89.1192 27.8167 89.0893 27.7681C87.1597 25.4236 86 22.4234 86 19.1572C86 18.3928 86.0644 17.6261 86.1904 16.8789C86.2385 16.5947 86.4835 16.4104 86.7751 16.3927C90.3087 16.4496 93.7569 17.1291 97.0222 18.4124C97.3223 18.53 97.4697 18.8683 97.3517 19.1684C97.2341 19.4685 96.8962 19.6169 96.5957 19.4979C93.6179 18.3279 90.4819 17.6811 87.267 17.5719C87.2003 18.0955 87.1667 18.6271 87.1667 19.1572C87.1667 21.9175 88.0729 24.4697 89.6041 26.5329C95.1985 19.9459 103.309 16.1836 111.972 16.1836L112.344 16.185C112.623 16.1873 112.862 16.3871 112.913 16.6619C113.065 17.4791 113.142 18.3186 113.142 19.1572C113.142 26.6402 107.054 32.7283 99.5711 32.7283Z" fill="#333333"/>
<path fill-rule="evenodd" clip-rule="evenodd" d="M92.9099 30.8913C92.7825 30.8913 92.6537 30.8493 92.5463 30.7639C92.2948 30.5623 92.2537 30.1955 92.4544 29.9439C97.2256 23.9757 104.339 20.5527 111.973 20.5527C112.121 20.5527 112.269 20.5541 112.417 20.5565C112.739 20.5611 112.997 20.8267 112.991 21.1487C112.986 21.4679 112.726 21.7231 112.408 21.7231H112.399C112.257 21.7208 112.115 21.7194 111.973 21.7194C104.696 21.7194 97.9144 24.9823 93.3663 30.6719C93.2505 30.8161 93.0811 30.8913 92.9099 30.8913Z" fill="#333333"/>
<path fill-rule="evenodd" clip-rule="evenodd" d="M97.2665 32.5237C97.1246 32.5237 96.9828 32.4729 96.8703 32.3688C96.6342 32.1499 96.6192 31.7808 96.8381 31.5442C100.502 27.5808 105.48 25.24 110.856 24.9521C111.177 24.9343 111.452 25.1821 111.469 25.5037C111.487 25.8252 111.239 26.0996 110.918 26.1169C105.848 26.3885 101.151 28.5972 97.6949 32.3366C97.5801 32.4607 97.4233 32.5237 97.2665 32.5237Z" fill="#333333"/>
<path fill-rule="evenodd" clip-rule="evenodd" d="M92.3143 22.6732C92.2667 22.6732 92.2186 22.6676 92.1701 22.6555C90.4084 22.2084 88.587 21.9639 86.7568 21.9294C86.4343 21.9233 86.1786 21.6568 86.1842 21.3353C86.1907 21.0128 86.4516 20.7688 86.7787 20.7627C88.6986 20.7996 90.6091 21.0558 92.4576 21.5243C92.7698 21.6036 92.9583 21.921 92.8794 22.2336C92.8122 22.4973 92.5752 22.6732 92.3143 22.6732Z" fill="#333333"/>
<path fill-rule="evenodd" clip-rule="evenodd" d="M100.2 19.8754C99.878 19.8754 99.6167 19.614 99.6167 19.292V12.2435C99.6167 11.921 99.878 11.6602 100.2 11.6602C100.522 11.6602 100.783 11.921 100.783 12.2435V19.292C100.783 19.614 100.522 19.8754 100.2 19.8754Z" fill="#333333"/>
<path fill-rule="evenodd" clip-rule="evenodd" d="M110.837 17.3502C110.515 17.3502 110.254 17.0889 110.254 16.7669V12.2435C110.254 11.921 110.515 11.6602 110.837 11.6602C111.159 11.6602 111.421 11.921 111.421 12.2435V16.7669C111.421 17.0889 111.159 17.3502 110.837 17.3502Z" fill="#333333"/>
<mask id="mask0" mask-type="alpha" maskUnits="userSpaceOnUse" x="97" y="8" width="17" height="7">
<path fill-rule="evenodd" clip-rule="evenodd" d="M97.4131 8.4668H113.623V14.1136H97.4131V8.4668Z" fill="white"/>
</mask>
<g mask="url(#mask0)">
<path fill-rule="evenodd" clip-rule="evenodd" d="M113.04 14.1137C112.938 14.1137 112.835 14.0871 112.741 14.0316L105.518 9.7289L98.2948 14.0316C98.0186 14.1954 97.6606 14.1058 97.495 13.829C97.3307 13.5523 97.4212 13.1939 97.698 13.0292L105.22 8.5487C105.404 8.4395 105.633 8.4395 105.817 8.5487L113.339 13.0292C113.615 13.1939 113.706 13.5523 113.541 13.829C113.432 14.012 113.238 14.1137 113.04 14.1137Z" fill="#333333"/>
</g>
<path fill-rule="evenodd" clip-rule="evenodd" d="M104.09 18.4435C103.768 18.4435 103.507 18.1821 103.507 17.8601V15.1441C103.507 14.0353 104.409 13.1328 105.519 13.1328C106.627 13.1328 107.53 14.0353 107.53 15.1441V17.2045C107.53 17.5265 107.269 17.7878 106.947 17.7878C106.625 17.7878 106.363 17.5265 106.363 17.2045V15.1441C106.363 14.6784 105.984 14.2995 105.519 14.2995C105.053 14.2995 104.674 14.6784 104.674 15.1441V17.8601C104.674 18.1821 104.412 18.4435 104.09 18.4435Z" fill="#333333"/>
<path d="M140.24 34.0796H133.2C131.792 34.0796 130.64 32.9276 130.64 31.5196V23.5299C130.64 21.0416 131.385 18.6428 132.573 16.4553C133.823 14.1526 134.48 11.5721 134.48 8.95069V4.63965H138.32V9.42941C138.32 11.9177 139.121 14.9434 140.631 17.3706" stroke="#333333" stroke-linecap="round" stroke-linejoin="round"/>
<path d="M130.64 23.8398H139.6" stroke="#333333" stroke-linecap="round" stroke-linejoin="round"/>
<path d="M130.64 30.2393H139.6" stroke="#333333" stroke-linecap="round" stroke-linejoin="round"/>
<path d="M134.48 7.19922H138.32" stroke="#333333" stroke-linecap="round" stroke-linejoin="round"/>
<path d="M146 28.96V34.08" stroke="#333333" stroke-linejoin="round"/>
<path d="M142.8 34.0801H149.2" stroke="#333333" stroke-linecap="round" stroke-linejoin="round"/>
<path fill-rule="evenodd" clip-rule="evenodd" d="M143.44 16.1592L142.16 25.1192C142.16 27.2401 143.879 28.9592 146 28.9592C148.121 28.9592 149.84 27.2401 149.84 25.1192L148.56 16.1592H143.44Z" stroke="#333333" stroke-linecap="round" stroke-linejoin="round"/>
<path d="M142.8 21.2793H149.2" stroke="#333333" stroke-linecap="round" stroke-linejoin="round"/>
<path fill-rule="evenodd" clip-rule="evenodd" d="M189.125 28.8906C186.949 28.8906 185.188 25.1129 185.188 20.4531C185.188 15.7923 186.949 12.0156 189.125 12.0156C191.3 12.0156 193.062 15.7923 193.062 20.4531C193.062 25.1129 191.3 28.8906 189.125 28.8906V28.8906Z" stroke="#333333" stroke-linecap="round" stroke-linejoin="round"/>
<path d="M177.108 29.8816C175.302 29.012 173.938 25.1206 173.938 20.453C173.938 15.8607 175.257 12.0211 177.022 11.0693" stroke="#333333" stroke-linecap="round" stroke-linejoin="round"/>
<path d="M181.704 30.0059C179.896 29.1363 178.437 25.1212 178.437 20.4536C178.437 15.8613 179.939 11.9283 181.704 10.9766" stroke="#333333" stroke-linecap="round" stroke-linejoin="round"/>
<path d="M173.761 29.5089C172.014 28.5729 170.562 24.803 170.562 20.4526C170.562 12.9174 174.094 11.204 173.644 11.4583" stroke="#333333" stroke-linecap="round" stroke-linejoin="round"/>
<path d="M185.188 29.6747C183.44 28.7387 181.812 24.8035 181.812 20.4531C181.812 16.1432 183.465 12.262 185.188 11.2832" stroke="#333333" stroke-linecap="round" stroke-linejoin="round"/>
<path d="M189.125 28.8905C179 31.4926 171.125 28.8905 171.125 28.8905C171.125 28.8905 167.188 27.7655 167.188 20.453C167.188 13.1405 171.125 12.0155 171.125 12.0155C171.125 12.0155 179 9.59 189.125 12.0155" stroke="#333333" stroke-linecap="round" stroke-linejoin="round"/>
<path fill-rule="evenodd" clip-rule="evenodd" d="M189.125 18.7656C188.815 18.7656 188.562 18.0096 188.562 17.0781C188.562 16.1466 188.815 15.3906 189.125 15.3906C189.435 15.3906 189.688 16.1466 189.688 17.0781C189.688 18.0096 189.435 18.7656 189.125 18.7656V18.7656Z" stroke="#333333" stroke-linejoin="round"/>
<path fill-rule="evenodd" clip-rule="evenodd" d="M223.673 34.9222C219.844 34.9222 216.741 31.8179 216.741 27.9904C216.741 24.1629 219.844 21.0586 223.673 21.0586C227.501 21.0586 230.604 24.1629 230.604 27.9904C230.604 31.8179 227.501 34.9222 223.673 34.9222Z" stroke="#333333" stroke-linejoin="round"/>
<path d="M226.561 29.1461H223.672V25.1025" stroke="#333333" stroke-linecap="round" stroke-linejoin="round"/>
<path d="M217.78 34.5758H211.613C210.176 34.5758 209 33.4184 209 32.004V23.9773C209 21.4776 209.76 19.0678 210.973 16.8702C212.249 14.5568 212.92 11.9644 212.92 9.33092V5H216.839V9.81185C216.839 12.3116 217.657 15.3513 219.199 17.7896C219.199 17.7896 220.091 19.3258 220.091 20.25" stroke="#333333" stroke-linecap="round" stroke-linejoin="round"/>
<path d="M209 24.3774H215.028" stroke="#333333" stroke-linecap="round" stroke-linejoin="round"/>
<path d="M209 30.4965H215.008" stroke="#333333" stroke-linecap="round" stroke-linejoin="round"/>
<path d="M212.984 7.03948H216.681" stroke="#333333" stroke-linecap="round" stroke-linejoin="round"/>
<path fill-rule="evenodd" clip-rule="evenodd" d="M269 23C269 27.694 265.194 31.5 260.5 31.5C255.806 31.5 252 27.694 252 23C252 18.306 260.5 8.5 260.5 8.5C260.5 8.5 269 18.306 269 23V23Z" stroke="#333333" stroke-linejoin="round"/>
<path d="M260.5 8.5V31.5" stroke="#333333" stroke-linejoin="round"/>
<path d="M262.5 10.9541V31.2641" stroke="#333333" stroke-linejoin="round"/>
<path d="M264.5 13.6348V30.4998" stroke="#333333" stroke-linejoin="round"/>
<path d="M266.5 16.6592V29.0002" stroke="#333333" stroke-linejoin="round"/>
<path fill-rule="evenodd" clip-rule="evenodd" d="M142.854 65.3832V49.0212C142.854 47.6872 141.773 46.6045 140.437 46.6045C139.102 46.6045 138.021 47.6872 138.021 49.0212V65.3832C136.578 66.2182 135.604 67.7757 135.604 69.5628C135.604 72.2332 137.769 74.3962 140.437 74.3962C143.107 74.3962 145.271 72.2332 145.271 69.5628C145.271 67.7757 144.297 66.2182 142.854 65.3832V65.3832Z" stroke="#333333" stroke-linecap="round" stroke-linejoin="round"/>
<path fill-rule="evenodd" clip-rule="evenodd" d="M141.646 69.5628C141.646 70.2322 141.106 70.7712 140.437 70.7712C139.769 70.7712 139.229 70.2322 139.229 69.5628C139.229 68.8958 139.769 68.3545 140.437 68.3545C141.106 68.3545 141.646 68.8958 141.646 69.5628V69.5628Z" stroke="#333333" stroke-linecap="round" stroke-linejoin="round"/>
<path d="M140.438 68.3542V55.0625" stroke="#333333" stroke-linecap="round" stroke-linejoin="round"/>
<path d="M169.747 53.9137H176.091C177.556 53.9137 177.8 53.6697 178.532 52.9376C179.264 52.2055 180.484 50.9854 182.436 50.9854H191.221C191.758 50.9854 192.198 51.4246 192.198 51.9615V58.7944C192.198 59.3313 191.758 59.7705 191.221 59.7705H182.436C180.484 59.7705 179.264 58.5503 178.532 57.8183C177.8 57.0862 177.556 56.8421 176.091 56.8421H169.747" stroke="#333333" stroke-linecap="round" stroke-linejoin="round"/>
<path fill-rule="evenodd" clip-rule="evenodd" d="M188.293 59.7705V50.9854H183.413V59.7705H188.293Z" stroke="#333333" stroke-linecap="round" stroke-linejoin="round"/>
<path fill-rule="evenodd" clip-rule="evenodd" d="M172.675 56.8418V53.9134H169.747V56.8418H172.675Z" stroke="#333333" stroke-linecap="round" stroke-linejoin="round"/>
<path d="M167.747 62.9137H174.091C175.556 62.9137 175.8 62.6697 176.532 61.9376C177.264 61.2055 178.484 59.9854 180.436 59.9854H189.221C189.758 59.9854 190.198 60.4246 190.198 60.9615V67.7944C190.198 68.3313 189.758 68.7705 189.221 68.7705H180.436C178.484 68.7705 177.264 67.5503 176.532 66.8183C175.8 66.0862 175.556 65.8421 174.091 65.8421H167.747" stroke="#333333" stroke-linecap="round" stroke-linejoin="round"/>
<path fill-rule="evenodd" clip-rule="evenodd" d="M186.293 68.7705V59.9854H181.413V68.7705H186.293Z" stroke="#333333" stroke-linecap="round" stroke-linejoin="round"/>
<path fill-rule="evenodd" clip-rule="evenodd" d="M170.675 65.8418V62.9134H167.747V65.8418H170.675Z" stroke="#333333" stroke-linecap="round" stroke-linejoin="round"/>
<path fill-rule="evenodd" clip-rule="evenodd" d="M233 66H207.8L210.2 68.4H230.6L233 66V66Z" stroke="#333333" stroke-linecap="round" stroke-linejoin="round"/>
<path d="M206.6 66H234.2" stroke="#333333" stroke-linecap="round" stroke-linejoin="round"/>
<path fill-rule="evenodd" clip-rule="evenodd" d="M222.2 53.3996C222.2 54.3932 221.392 55.1996 220.4 55.1996C219.405 55.1996 218.6 54.3932 218.6 53.3996C218.6 52.406 219.405 51.5996 220.4 51.5996C221.392 51.5996 222.2 52.406 222.2 53.3996V53.3996Z" stroke="#333333" stroke-linecap="round" stroke-linejoin="round"/>
<path d="M209.6 65.9992C209.6 60.034 214.435 55.1992 220.4 55.1992C226.365 55.1992 231.2 60.034 231.2 65.9992" stroke="#333333" stroke-linecap="round" stroke-linejoin="round"/>
<path d="M213.827 61.7992C215.212 59.6332 217.637 58.1992 220.4 58.1992" stroke="#333333" stroke-linecap="round" stroke-linejoin="round"/>
</svg>
